<svg id="svg" version="1.1" xmlns="http://www.w3.org/2000/svg" xmlns:xlink="http://www.w3.org/1999/xlink" width="400"
     height="400" viewBox="0, 0, 400,400">
    <g id="svgg">
        <path id="path1"
              d="M195.600 82.353 C 191.267 83.769,189.514 85.488,183.526 94.200 C 180.956 97.940,178.289 101.810,177.600 102.800 C 176.504 104.377,171.665 111.419,160.974 127.000 C 159.313 129.420,155.901 134.370,153.391 138.000 C 143.778 151.902,143.052 158.933,150.188 169.000 C 155.012 175.807,157.901 180.309,157.664 180.653 C 157.519 180.865,156.530 181.541,155.466 182.156 C 139.823 191.196,140.069 217.473,155.873 225.535 C 158.816 227.036,158.423 227.593,153.200 229.328 C 134.793 235.441,114.817 227.626,102.848 209.628 C 89.595 189.702,92.041 166.860,106.954 171.289 C 112.610 172.969,114.252 178.837,110.903 185.400 C 105.977 195.052,117.364 202.012,123.345 193.004 C 134.300 176.504,120.401 153.919,100.803 156.376 C 87.409 158.055,79.980 168.188,80.008 184.739 C 80.049 208.805,96.511 232.197,120.600 242.421 C 133.866 248.051,150.750 247.026,165.498 239.697 C 170.627 237.148,171.182 237.170,168.736 239.823 C 161.786 247.364,150.093 252.321,135.800 253.785 C 117.610 255.648,113.566 257.236,109.721 264.028 C 101.147 279.170,116.254 294.669,134.000 288.935 C 144.843 285.432,140.771 272.126,129.735 275.000 C 124.719 276.307,122.000 275.547,122.000 272.839 C 122.000 270.111,125.300 268.875,132.727 268.821 C 148.627 268.706,166.834 261.523,178.395 250.806 C 181.147 248.255,181.337 248.740,179.131 252.685 C 178.179 254.389,177.328 255.967,177.239 256.191 C 176.371 258.395,170.355 265.681,164.510 271.609 C 155.116 281.135,152.649 284.518,151.052 290.062 C 148.073 300.401,154.676 312.383,165.800 316.825 C 175.192 320.575,186.951 316.522,192.070 307.772 C 197.164 299.065,195.228 287.439,188.378 285.594 C 182.972 284.139,177.776 289.002,179.603 293.807 C 182.601 301.693,173.704 306.942,167.632 300.871 C 164.080 297.319,164.031 294.207,167.447 289.131 C 169.039 286.765,170.933 284.928,178.538 278.380 C 182.366 275.082,193.600 259.109,193.600 256.963 C 193.600 256.886,194.081 255.783,194.668 254.512 C 195.256 253.240,196.576 249.770,197.602 246.800 C 199.765 240.535,200.399 239.944,201.380 243.275 C 205.544 257.412,213.441 270.638,222.852 279.236 C 232.719 288.250,235.200 291.448,235.200 295.156 C 235.200 300.989,228.639 305.252,223.588 302.700 C 220.195 300.986,219.430 298.666,220.609 293.665 C 222.617 285.151,210.291 281.816,206.712 289.906 C 200.136 304.771,216.288 322.635,231.800 317.654 C 243.089 314.029,249.612 305.804,249.595 295.216 C 249.583 287.450,246.351 281.989,235.395 271.226 C 228.309 264.264,224.594 259.695,221.440 254.063 C 217.760 247.491,217.923 247.074,222.471 251.419 C 232.769 261.258,252.078 268.781,267.071 268.797 C 273.620 268.804,277.758 269.990,278.196 271.984 C 278.860 275.004,275.935 276.536,271.763 275.352 C 266.322 273.809,263.740 274.348,261.317 277.531 C 258.215 281.608,260.416 287.145,265.839 288.904 C 283.237 294.546,298.362 280.600,291.113 265.600 C 287.347 257.805,281.658 254.970,268.200 254.182 C 254.811 253.397,243.968 249.857,235.569 243.528 C 232.391 241.134,229.371 238.096,229.770 237.697 C 229.898 237.569,232.477 238.648,235.501 240.094 C 255.038 249.435,273.451 247.946,291.967 235.526 C 327.556 211.655,329.983 154.897,295.346 156.494 C 277.329 157.324,267.616 174.617,275.892 191.129 C 278.410 196.152,281.266 197.837,285.241 196.643 C 290.615 195.029,292.047 191.276,289.393 185.758 C 285.259 177.163,288.411 170.802,296.800 170.810 C 303.055 170.817,305.161 173.920,305.479 183.600 C 305.695 190.178,305.288 192.653,302.881 199.400 C 295.415 220.324,270.926 235.649,252.600 230.864 C 242.335 228.185,241.001 227.340,244.287 225.599 C 260.175 217.185,260.579 192.550,244.995 182.397 C 241.758 180.288,241.585 181.077,246.971 173.399 C 253.667 163.853,254.400 162.086,254.400 155.496 C 254.400 149.346,253.683 147.935,241.843 130.800 C 233.686 118.994,222.390 102.575,215.951 93.164 C 209.520 83.764,207.482 82.299,200.600 82.126 C 198.400 82.071,196.150 82.173,195.600 82.353 M173.974 186.245 C 189.057 189.949,193.030 209.839,180.577 219.303 C 173.160 224.940,162.394 223.853,155.871 216.808 C 143.424 203.363,156.156 181.869,173.974 186.245 M235.016 186.205 C 248.501 189.627,253.755 205.979,244.753 216.510 C 236.892 225.707,221.825 224.769,215.248 214.673 C 205.986 200.458,218.749 182.077,235.016 186.205 M165.721 196.854 C 160.830 199.227,159.691 206.104,163.521 210.136 C 167.230 214.041,174.384 213.136,176.769 208.460 C 180.571 201.009,173.174 193.239,165.721 196.854 M226.879 196.874 C 220.907 199.769,220.944 208.744,226.940 211.880 C 229.986 213.472,235.288 212.285,237.214 209.580 C 242.446 202.232,234.918 192.977,226.879 196.874 "
              stroke="none" fill="#f9f8fb" fill-rule="evenodd"></path>
    </g>
</svg>